<?xml version="1.0" encoding="UTF-8"?>
<svg width="19px" height="12px" viewBox="0 0 19 12" version="1.1" xmlns="http://www.w3.org/2000/svg" xmlns:xlink="http://www.w3.org/1999/xlink">
    <!-- Generator: sketchtool 48.2 (47327) - http://www.bohemiancoding.com/sketch -->
    <title>30E5B1B3-1F15-40F5-9FA4-585AC91B690A</title>
    <desc>Created with sketchtool.</desc>
    <defs></defs>
    <g id="01.1.13_Lefur_Obstacle" stroke="none" stroke-width="1" fill="none" fill-rule="evenodd" transform="translate(-198.000000, -624.000000)">
        <g id="Nav" transform="translate(168.000000, 592.000000)" fill="#090909" fill-rule="nonzero">
            <g id="CTA-Right">
                <g id="Group" transform="translate(39.500000, 38.000000) scale(-1, 1) translate(-39.500000, -38.000000) translate(30.000000, 32.000000)">
                    <path d="M1,0 L18,0 C18.5522847,-1.01453063e-16 19,0.44771525 19,1 L19,1 C19,1.55228475 18.5522847,2 18,2 L1,2 C0.44771525,2 6.76353751e-17,1.55228475 0,1 L0,1 C-6.76353751e-17,0.44771525 0.44771525,1.01453063e-16 1,0 Z M1,5 L13,5 C13.5522847,5 14,5.44771525 14,6 C14,6.55228475 13.5522847,7 13,7 L1,7 C0.44771525,7 6.76353751e-17,6.55228475 0,6 C-6.76353751e-17,5.44771525 0.44771525,5 1,5 Z M1,10 L8,10 C8.55228475,10 9,10.4477153 9,11 C9,11.5522847 8.55228475,12 8,12 L1,12 C0.44771525,12 6.76353751e-17,11.5522847 0,11 C-6.76353751e-17,10.4477153 0.44771525,10 1,10 Z" id="En-savoir-plus"></path>
                </g>
            </g>
        </g>
    </g>
</svg>