<svg xmlns="http://www.w3.org/2000/svg" width="49" height="49" viewBox="0 0 49 49">
    <path fill="#FFF" fill-rule="nonzero" d="M34.953.2H13.446C6.142.2.2 6.142.2 13.446v21.508C.2 42.258 6.142 48.2 13.446 48.2h21.507c7.305 0 13.247-5.942 13.247-13.246V13.446C48.2 6.142 42.258.2 34.953.2zm8.988 34.754c0 4.956-4.031 8.987-8.987 8.987H13.446c-4.956 0-8.987-4.031-8.987-8.987V13.446c0-4.955 4.031-8.987 8.987-8.987h21.507c4.956 0 8.988 4.032 8.988 8.987v21.508zM23.426 11.039c-6.83 0-12.387 5.557-12.387 12.387s5.556 12.387 12.387 12.387c6.83 0 12.387-5.557 12.387-12.387S30.256 11.04 23.426 11.04zm0 20.508c-4.478 0-8.122-3.643-8.122-8.121 0-4.479 3.643-8.122 8.122-8.122 4.478 0 8.122 3.643 8.122 8.122 0 4.478-3.644 8.121-8.122 8.121zM37.36 7.942c.817 0 1.616.33 2.19.906a3.11 3.11 0 0 1 .907 2.19 3.12 3.12 0 0 1-.906 2.191 3.127 3.127 0 0 1-2.19.906 3.12 3.12 0 0 1-2.188-.906 3.122 3.122 0 0 1-.91-2.19c0-.817.332-1.616.91-2.19a3.109 3.109 0 0 1 2.187-.907z"/>
</svg>
